<?xml version="1.0" encoding="utf-8"?>
<!-- Generator: Adobe Illustrator 25.0.0, SVG Export Plug-In . SVG Version: 6.00 Build 0)  -->
<svg version="1.1" id="katman_1" xmlns="http://www.w3.org/2000/svg" xmlns:xlink="http://www.w3.org/1999/xlink" x="0px" y="0px"
	 viewBox="0 0 4569.3 3118.7" style="enable-background:new 0 0 4569.3 3118.7;" xml:space="preserve">
<style type="text/css">
	.st0{fill:#888888;}
</style>
<g>
	<path class="st0" d="M2773.7,411.5c271.3,115.1,470.6,302.3,607.8,551.6c-133.2,192-259.1,391.2-395.8,579.7
		C2916.9,1163.8,2843,789.9,2773.7,411.5L2773.7,411.5z M1034.7,1596.4v-74.1c7.2-117.9,23.1-227.1,53.6-321.8
		c233.8-43.7,464.4-90.6,697.1-135.3c-217.3,326.6-432.5,655.4-651.2,980.6C1078.8,1918.2,1043.6,1770.4,1034.7,1596.4z
		 M3534.7,1522.3v74.1c-7.2,117.9-23.1,227.2-53.6,321.8c-237,43.1-469.8,90.3-704.8,135.3c219.7-324.3,441.3-660.2,661.4-975.5
		C3491.2,1204.9,3526,1350.5,3534.7,1522.3z M1591.4,1555.5c72.5,383.8,142.8,769.7,212,1156.8c-271.3-116-472.5-302.1-612.9-549
		C1321.2,1957.8,1457.4,1757.8,1591.4,1555.5L1591.4,1555.5z M3435.1,2035.6h5.1c-118.3,278.4-309.8,483.5-564.4,625.6
		c-174.4-113.9-350.9-233.4-523.5-352.4c-23.5-16.2-44.7-31.8-68.9-51.1C2669.7,2186.1,3051.7,2110.2,3435.1,2035.6L3435.1,2035.6z
		 M2247.6,309.3h74.1c121.9,8.4,237.8,22.7,332,58.7c44.7,226,85.3,456.1,130.2,681.8C2465,831.7,2141.6,618,1826.3,396.2
		C1948.8,349.3,2086.1,317.2,2247.6,309.3z M2247.6,2809.3c-119.9-7.8-232.5-22.9-326.9-56.2c-39.6-231.1-82.6-458.7-125.1-686.9
		c320.7,216.5,644.7,429.6,960.2,651.2c-125.7,49.7-266.9,83.8-434.1,91.9C2297,2809.3,2272.3,2809.3,2247.6,2809.3L2247.6,2809.3z
		 M1380.2,694.1c17.6-17.4,35.1-34.7,52.7-52.1c88.9-77.8,177.8-143.2,266.6-188c195.4,135.6,390.9,266.7,586.3,400.7
		c-385,75-770.1,153.1-1155.2,226.1C1182.3,951.7,1262.7,822.8,1380.2,694.1L1380.2,694.1z"/>
</g>
</svg>
