<svg width="4569.3" height="3118.7" xmlns="http://www.w3.org/2000/svg" xml:space="preserve" version="1.1">

 <g>
  <title>Layer 1</title>
  <path id="svg_2" fill="#fffcfc" d="m2784.22697,364.2c271.3,115.1 470.6,302.3 607.8,551.6c-133.2,192 -259.1,391.2 -395.8,579.7c-68.8,-379 -142.7,-752.9 -212,-1131.3l0,0zm-1739,1184.9l0,-74.1c7.2,-117.9 23.1,-227.1 53.6,-321.8c233.8,-43.7 464.4,-90.6 697.1,-135.3c-217.3,326.6 -432.5,655.4 -651.2,980.6c-55.4,-127.6 -90.6,-275.4 -99.5,-449.4zm2500,-74.1l0,74.1c-7.2,117.9 -23.1,227.2 -53.6,321.8c-237,43.1 -469.8,90.3 -704.8,135.3c219.7,-324.3 441.3,-660.2 661.4,-975.5c53.5,126.9 88.3,272.5 97,444.3zm-1943.3,33.2c72.5,383.8 142.8,769.7 212,1156.8c-271.3,-116 -472.5,-302.1 -612.9,-549c130.7,-205.5 266.9,-405.5 400.9,-607.8l0,0zm1843.7,480.1l5.1,0c-118.3,278.4 -309.8,483.5 -564.4,625.6c-174.4,-113.9 -350.9,-233.4 -523.5,-352.4c-23.5,-16.2 -44.7,-31.8 -68.9,-51.1c386.3,-71.6 768.3,-147.5 1151.7,-222.1l0,0zm-1187.5,-1726.3l74.1,0c121.9,8.4 237.8,22.7 332,58.7c44.7,226 85.3,456.1 130.2,681.8c-318.9,-218.1 -642.3,-431.8 -957.6,-653.6c122.5,-46.9 259.8,-79 421.3,-86.9zm0,2500c-119.9,-7.8 -232.5,-22.9 -326.9,-56.2c-39.6,-231.1 -82.6,-458.7 -125.1,-686.9c320.7,216.5 644.7,429.6 960.2,651.2c-125.7,49.7 -266.9,83.8 -434.1,91.9c-24.7,0 -49.4,0 -74.1,0l0,0zm-867.4,-2115.2c17.6,-17.4 35.1,-34.7 52.7,-52.1c88.9,-77.8 177.8,-143.2 266.6,-188c195.4,135.6 390.9,266.7 586.3,400.7c-385,75 -770.1,153.1 -1155.2,226.1c51.7,-129.1 132.1,-258 249.6,-386.7l0,0z" class="st0"/>
 </g>
</svg>